<svg width="350" height="350" viewBox="0 0 350 350" fill="none" xmlns="http://www.w3.org/2000/svg">
<rect width="350" height="350" fill="white"/>
<path d="M68.0778 130.261L67.9634 130.483L61.1655 131.931C59.8931 132.189 58.9564 132.321 58.3554 132.328C57.7543 132.334 57.3138 132.264 57.0339 132.119C56.7687 131.981 56.6192 131.8 56.5852 131.575C56.5589 131.336 56.6486 131.017 56.8546 130.617C56.9689 130.395 57.1438 130.091 57.3792 129.707C57.6146 129.322 57.8156 129.004 57.9824 128.753C57.6522 128.487 57.2552 128.224 56.7914 127.964C56.3205 127.682 55.9083 127.448 55.5547 127.264C55.3043 127.134 55.0574 127.015 54.8141 126.907C54.5636 126.777 54.3388 126.669 54.1397 126.584L52.0463 130.65L50.221 130.658L50 130.543L61.6224 107.97L63.4477 107.963L63.6687 108.078L62.3303 110.677L74.6175 117.016L74.5031 117.238L72.4388 118.417L68.9367 116.566C69.0086 117.261 69.0559 117.858 69.0786 118.358C69.1013 118.859 69.0725 119.332 68.992 119.778C68.9045 120.202 68.7387 120.651 68.4947 121.125C68.0981 121.895 67.6185 122.5 67.0559 122.94C66.4933 123.379 65.8993 123.681 65.2738 123.843C64.9237 123.943 64.5815 124.009 64.2471 124.041C64.2313 124.108 64.2194 124.168 64.2112 124.22C64.0942 124.629 63.9709 124.959 63.8413 125.211C63.6277 125.625 63.276 126.109 62.786 126.661C62.2813 127.206 61.4651 127.739 60.3375 128.26C60.563 128.584 60.7061 128.959 60.767 129.385C60.8207 129.789 60.7659 130.258 60.6026 130.793L67.7331 128.645L68.0778 130.261ZM55.0663 124.785C55.3762 124.908 55.7079 125.062 56.0615 125.246C56.4079 125.408 56.6769 125.538 56.8684 125.638C57.3251 125.876 57.7998 126.151 58.2926 126.464C58.7929 126.762 59.2371 127.096 59.6252 127.467C60.0521 127.182 60.4767 126.793 60.8991 126.299C61.3144 125.783 61.6288 125.317 61.8423 124.903C62.0253 124.547 62.1527 124.191 62.2245 123.834C62.2321 123.819 62.2362 123.793 62.2367 123.756C62.126 123.717 62.019 123.671 61.9159 123.617C61.2972 123.295 60.8401 122.822 60.5446 122.199C60.2567 121.561 60.1403 120.862 60.1954 120.102C60.2358 119.334 60.4429 118.587 60.8166 117.861C61.2741 116.973 61.8998 116.265 62.6936 115.74C63.4874 115.214 64.3422 114.842 65.2578 114.623L61.3694 112.543L55.0663 124.785ZM66.4732 115.256C65.7725 115.492 65.077 115.881 64.3869 116.424C63.6896 116.943 63.1579 117.559 62.7919 118.27C62.3724 119.084 62.2276 119.892 62.3574 120.692C62.4725 121.484 62.9204 122.083 63.7012 122.49C64.2905 122.796 64.8466 122.823 65.3695 122.569C65.8924 122.315 66.2987 121.907 66.5885 121.344C66.8707 120.796 67.0218 120.067 67.042 119.158C67.0621 118.248 66.9314 116.978 66.65 115.348L66.4732 115.256Z" fill="#199ED7"/>
<path d="M78.9327 105.841C78.2628 106.647 77.4976 107.243 76.637 107.629C75.7636 108.004 74.9065 108.164 74.0654 108.11C73.235 108.043 72.5142 107.753 71.903 107.24C71.4319 106.844 71.1201 106.387 70.9677 105.868L69.4526 107.692L67.6338 107.306L67.4428 107.146L73.5034 99.8488C73.4105 99.3362 73.4567 98.7992 73.642 98.2377C73.8274 97.6763 74.1221 97.1524 74.5261 96.6659C74.9621 96.1411 75.3915 95.8062 75.8143 95.6615C76.2371 95.5167 76.628 95.4754 76.9868 95.5377C77.3564 95.5872 77.6706 95.6772 77.9296 95.8077C77.7532 95.9421 77.5353 96.1394 77.2759 96.3997C77.0144 96.6364 76.7773 96.8828 76.5647 97.1388C76.0968 97.7021 75.7957 98.2858 75.6613 98.89C75.5269 99.4942 75.6889 99.9887 76.1473 100.374C76.4656 100.641 76.8308 100.774 77.2428 100.772C77.6655 100.757 78.0946 100.683 78.5302 100.549C78.6285 99.9362 78.832 99.3139 79.1406 98.6822C79.4492 98.0504 79.7854 97.4635 80.1491 96.9215L82.0504 97.6377C81.2464 98.7879 80.7856 99.759 80.668 100.551C80.5504 101.343 80.7144 101.926 81.16 102.3C81.4656 102.557 81.8224 102.661 82.2302 102.612C82.6381 102.564 83.0482 102.408 83.4605 102.146C83.8707 101.86 84.2406 101.519 84.5702 101.122C85.2507 100.303 85.7222 99.3188 85.9846 98.1702C86.2449 96.9981 86.2842 95.8579 86.1027 94.7494C85.4377 94.9516 84.7185 95.1409 83.9452 95.3174C83.1698 95.4703 82.42 95.5144 81.6958 95.4496C80.9589 95.3741 80.3166 95.1066 79.7691 94.6469C79.2725 94.23 78.9555 93.714 78.8181 93.0988C78.6785 92.4602 78.7577 91.8314 79.0557 91.2124L78.1198 90.4267L65.0575 106.153L63.2737 105.764L63.0827 105.604L80.8501 84.2123L82.6338 84.6017L82.8248 84.762L79.4117 88.8713L80.4049 89.7051C81.1828 89.1849 82.0751 88.9562 83.0818 89.0192C84.0991 89.0693 85.0598 89.4739 85.9639 90.2329C86.7661 90.9064 87.3578 91.7291 87.7392 92.7011C88.1078 93.6624 88.2926 94.6758 88.2937 95.7414C88.2926 96.7835 88.1248 97.8051 87.7904 98.8063C87.4538 99.7839 86.9825 100.638 86.3764 101.367C85.781 102.084 85.1007 102.643 84.3357 103.044C83.5579 103.434 82.7846 103.675 82.0156 103.768C81.2573 103.849 80.5978 103.784 80.0373 103.574C79.8795 104.18 79.6985 104.659 79.4942 105.009C79.3006 105.346 79.1134 105.623 78.9327 105.841ZM78.3124 101.67C76.6553 102.104 75.4001 102.028 74.5468 101.442C74.0492 102.067 73.6323 102.673 73.2961 103.26C72.9706 103.834 72.8075 104.381 72.807 104.903C72.7937 105.413 73.0418 105.882 73.5511 106.309C74.0986 106.769 74.674 106.948 75.2774 106.846C75.8786 106.721 76.4237 106.364 76.9128 105.775C77.1787 105.455 77.4489 104.986 77.7235 104.369C77.9854 103.742 78.1817 102.842 78.3124 101.67ZM85.8871 93.721C85.7178 93.1443 85.4878 92.6145 85.1973 92.1316C84.8941 91.638 84.5324 91.2148 84.1122 90.862C83.4373 90.2955 82.8439 90.0471 82.332 90.1171C81.82 90.187 81.4205 90.3948 81.1334 90.7405C80.8038 91.1373 80.6727 91.5814 80.7402 92.0726C80.8077 92.5638 81.0834 93.0125 81.5672 93.4187C82.0511 93.8249 82.6498 94.0668 83.3634 94.1444C84.0642 94.2114 84.9055 94.0702 85.8871 93.721Z" fill="#199ED7"/>
<path d="M100.496 82.1709C99.982 82.5657 99.397 82.8261 98.7411 82.952C98.0853 83.0778 97.4252 83.102 96.761 83.0245C96.0967 82.947 95.4965 82.7888 94.9602 82.55C94.4239 82.3113 94.0233 82.0313 93.7584 81.71C93.6043 81.5346 93.4668 81.3674 93.3459 81.2083C93.2251 81.0493 93.1093 80.8969 92.9985 80.7511C92.6763 80.3269 92.3189 79.8564 91.9262 79.3395C91.5466 78.8125 91.1605 78.2905 90.7678 77.7736L89.4231 78.8062L87.769 78.0303L87.618 77.8314L99.0675 69.0391L100.722 69.815L100.873 70.0138L98.559 71.7905L106.981 82.7941L106.784 82.946L104.416 83.127L102.05 79.9706C101.673 80.9313 101.155 81.6647 100.496 82.1709ZM96.8979 73.0661L92.4486 76.4828L95.8111 80.8263C96.2944 81.4625 96.7919 81.815 97.3035 81.8839C97.815 81.9527 98.2356 81.8606 98.5652 81.6075C98.9607 81.3038 99.3066 80.8388 99.6031 80.2124C99.9127 79.5759 100.211 78.801 100.499 77.8878L96.8979 73.0661Z" fill="#199ED7"/>
<path d="M113.033 74.6962C112.188 75.1933 111.257 75.442 110.238 75.4424C109.226 75.42 108.232 75.1832 107.259 74.7322C106.299 74.2726 105.457 73.6185 104.732 72.7696C105.689 71.839 106.333 71.0636 106.664 70.4436C107.001 69.8009 107.027 69.2348 106.742 68.7454C106.633 68.5583 106.445 68.3503 106.177 68.1214C105.924 67.8841 105.586 67.6673 105.164 67.4711L101.814 69.4428L100.267 68.4691L100.141 68.2532L113.112 60.6194L114.659 61.5931L114.785 61.809L112.272 63.2877L119.292 75.2447L119.077 75.3711L116.706 75.2595L115.093 72.4402C114.831 72.9808 114.519 73.4351 114.157 73.803C113.794 74.171 113.42 74.4687 113.033 74.6962ZM110.468 64.3493L106.345 66.776C107.591 67.3959 108.418 68.0585 108.829 68.7638C109.148 69.3107 109.199 69.9277 108.984 70.6147C108.783 71.2933 108.244 72.0841 107.367 72.987C107.633 73.4104 107.989 73.7418 108.436 73.9812C108.889 74.1978 109.371 74.3003 109.884 74.2887C110.41 74.2687 110.917 74.1154 111.404 73.8289C111.89 73.5425 112.342 73.1126 112.758 72.5393C113.173 71.966 113.548 71.2235 113.883 70.3118L110.468 64.3493Z" fill="#199ED7"/>
<path d="M121.836 58.4516L119.207 59.708L125.233 72.3399L125.008 72.4473L122.654 72.1313L117.319 60.6099L115.341 61.5549L113.883 60.4513L113.776 60.2253L120.271 57.1221L121.729 58.2257L121.836 58.4516Z" fill="#199ED7"/>
<path d="M118.237 52.2751L118.208 52.4531C117.918 52.4566 117.623 52.4899 117.324 52.5527C117.003 52.6073 116.691 52.7033 116.389 52.8407C115.648 53.1773 115.193 53.6036 115.025 54.1195C114.856 54.6354 114.892 55.1593 115.131 55.6912C115.39 56.2686 115.803 56.7402 116.368 57.1057C116.917 57.4781 117.619 57.864 118.472 58.2633L117.293 58.7991C116.305 58.4244 115.457 57.9955 114.748 57.5123C114.024 57.036 113.498 56.4332 113.17 55.7037C112.958 55.2326 112.858 54.7472 112.87 54.2476C112.876 53.7327 113.036 53.2389 113.351 52.7661C113.651 52.3002 114.134 51.9161 114.799 51.6138C116.114 51.0161 117.26 51.2365 118.237 52.2751Z" fill="#199ED7"/>
<path d="M131.736 65.7815C130.927 66.0809 130.167 66.202 129.457 66.1448C128.746 66.0875 128.098 65.9097 127.512 65.6112C126.941 65.307 126.452 64.9369 126.045 64.5009C125.653 64.0592 125.375 63.6114 125.209 63.1575C124.968 62.5001 124.948 61.8411 125.148 61.1806C125.364 60.5144 125.747 59.9195 126.298 59.396C126.843 58.8567 127.497 58.4461 128.26 58.164C129.194 57.8186 130.131 57.721 131.07 57.8715C132.008 58.0219 132.889 58.3271 133.711 58.7872L132.238 54.6141L122.476 58.2239L121.123 56.9913L121.038 56.7565L135.493 51.4109L136.846 52.6435L136.932 52.8783L134.199 53.8887L139.013 66.9024L138.78 66.9887L136.465 66.4587L135.122 62.7168C134.709 63.2784 134.343 63.7514 134.024 64.1358C133.705 64.5203 133.366 64.85 133.007 65.1249C132.658 65.3784 132.235 65.5973 131.736 65.7815ZM134.184 60.0785C133.508 59.7775 132.733 59.593 131.86 59.525C130.997 59.4356 130.191 59.529 129.444 59.8054C128.588 60.122 127.939 60.6196 127.498 61.298C127.051 61.9609 126.979 62.7071 127.283 63.5367C127.512 64.1628 127.904 64.5596 128.461 64.7271C129.017 64.8946 129.591 64.869 130.182 64.6502C130.758 64.4372 131.359 64.0018 131.985 63.344C132.61 62.6862 133.366 61.6603 134.252 60.2664L134.184 60.0785Z" fill="#199ED7"/>
<path d="M148.827 64.4189L148.586 64.4807L142.319 59.813C141.54 59.2381 140.964 58.7573 140.592 58.3707C140.232 57.9638 140.018 57.623 139.948 57.3482C139.817 56.831 140.161 56.4674 140.981 56.2574C141.222 56.1956 141.556 56.1274 141.982 56.0526C142.408 55.9779 142.77 55.9196 143.067 55.8778C143.045 55.4531 142.977 54.9802 142.862 54.4589C142.759 53.9173 142.658 53.4526 142.56 53.0647C142.474 52.7253 142.392 52.4365 142.315 52.1982C142.253 51.9558 142.19 51.7396 142.125 51.5498L137.736 52.6741L136.517 51.3084L136.455 51.066L146.486 48.4961L147.705 49.8618L147.767 50.1043L144.126 51.0371C144.22 51.34 144.322 51.6753 144.432 52.0429C144.543 52.4105 144.616 52.667 144.653 52.8125C144.989 54.1377 145.159 55.2129 145.162 56.0381C145.166 56.8633 145.016 57.5213 144.713 58.0121C144.425 58.4988 144.008 58.881 143.463 59.1585L149.799 63.0857L148.827 64.4189Z" fill="#199ED7"/>
<path d="M156.644 58.6763C156.019 58.7596 155.399 58.6909 154.784 58.47C154.17 58.2492 153.601 57.938 153.08 57.5365C152.558 57.135 152.125 56.7049 151.78 56.2462C151.449 55.7687 151.239 55.3173 151.15 54.8918C151.103 54.6625 151.066 54.4487 151.04 54.2503C151.014 54.0519 150.989 53.8618 150.965 53.6799C150.895 53.1508 150.813 52.5309 150.719 51.8199C150.642 51.1068 150.558 50.4113 150.469 49.7335L148.792 49.9572L147.74 48.457L147.707 48.209L165.838 45.791L166.889 47.2911L166.922 47.5391L164.036 47.924L165.901 61.6813L165.655 61.7142L163.511 60.6878L161.964 48.2004L158.905 48.6083L159.681 54.4859C159.757 55.0645 159.702 55.6607 159.515 56.2745C159.345 56.886 159.021 57.417 158.545 57.8675C158.084 58.2992 157.45 58.5688 156.644 58.6763ZM152.566 49.4538L153.368 55.1512C153.472 55.9448 153.721 56.5004 154.115 56.8181C154.508 57.1358 154.976 57.2584 155.519 57.186C156.144 57.1027 156.667 56.8225 157.09 56.3456C157.51 55.8521 157.663 55.1755 157.55 54.3158L156.833 48.8847L152.566 49.4538Z" fill="#199ED7"/>
<path d="M190.585 60.4275L190.387 60.4128L188.782 58.8141C189.411 58.1749 189.953 57.4709 190.409 56.7019C190.881 55.9341 191.137 55.2757 191.177 54.7269C191.209 54.2944 191.108 53.9609 190.876 53.7263C190.661 53.4763 190.397 53.3397 190.083 53.3164C189.735 53.2907 189.33 53.3778 188.866 53.5776C188.403 53.7608 187.937 53.9938 187.467 54.2768C186.998 54.5598 186.57 54.8292 186.186 55.085L185.703 62.0229L185.455 62.0045L183.568 60.5103L183.883 56.5452C183.272 56.9348 182.768 57.232 182.371 57.4367C181.99 57.6426 181.638 57.7839 181.317 57.8604C180.996 57.9203 180.646 57.9362 180.265 57.908C179.422 57.8456 178.677 57.5648 178.032 57.0655C177.403 56.5674 176.915 55.9628 176.568 55.2514C176.238 54.5247 176.098 53.8203 176.148 53.1384C176.201 52.4232 176.436 51.8218 176.854 51.3343C177.273 50.8469 177.79 50.4838 178.406 50.2451C179.039 50.0076 179.678 49.9127 180.323 49.9605C181.167 50.0229 181.911 50.3038 182.557 50.803C183.22 51.2869 183.777 51.8549 184.229 52.507L184.607 48.0198L175.599 47.3533L174.874 45.6692L174.892 45.4197L194.373 46.8609L195.098 48.5451L195.079 48.7946L186.642 48.1703L186.345 52.5633C186.919 52.2211 187.472 51.936 188.005 51.7078C188.555 51.4642 189.02 51.3565 189.401 51.3846C189.698 51.4066 190.039 51.5321 190.421 51.7611C190.821 51.9747 191.198 52.2868 191.55 52.6975C191.919 53.1095 192.207 53.6074 192.414 54.1912C192.637 54.7764 192.721 55.4432 192.667 56.1916C192.611 56.9568 192.401 57.6687 192.036 58.3274C191.689 58.9873 191.205 59.6873 190.585 60.4275ZM184.092 54.0271L184.103 53.8774C183.707 53.3799 183.224 52.9427 182.652 52.566C182.081 52.1893 181.473 51.9771 180.828 51.9293C180.116 51.8767 179.455 52.0452 178.845 52.4348C178.25 52.8257 177.924 53.4286 177.864 54.2436C177.818 54.8757 177.948 55.3619 178.256 55.7025C178.565 56.0263 178.943 56.2048 179.39 56.2378C179.787 56.2672 180.243 56.1755 180.757 55.9627C181.289 55.7345 181.843 55.4494 182.417 55.1072C182.99 54.765 183.549 54.405 184.092 54.0271Z" fill="#199ED7"/>
<path d="M178.267 37.668L178.322 37.5C178.979 37.4994 179.54 37.5238 180.003 37.573C180.466 37.6223 180.771 37.6601 180.918 37.6865C181.751 37.836 182.471 38.2872 183.079 39.0402C183.686 39.7931 184.257 40.8019 184.791 42.0667C185.327 43.3151 185.897 44.7558 186.5 46.3888L185.177 46.1513C184.635 44.6479 184.169 43.4798 183.778 42.6472C183.373 41.7952 182.992 41.1848 182.637 40.816C182.284 40.4307 181.879 40.197 181.422 40.1149C181.16 40.068 180.797 40.0282 180.331 39.9953C179.848 39.9595 179.412 39.949 179.022 39.9636L178.267 37.668Z" fill="#199ED7"/>
<path d="M203.984 64.9381L203.743 64.8793L202.112 63.1444L205.18 50.8154L203.052 50.2979L202.61 48.5174L202.668 48.2742L205.74 49.0211C205.551 48.4603 205.444 47.9454 205.42 47.4763C205.413 47.0112 205.456 46.5841 205.549 46.1951C205.815 45.0927 206.466 44.2989 207.505 43.8136C208.559 43.3322 209.949 43.3012 211.674 43.7207C213.319 44.1207 215.033 44.9407 216.817 46.181C218.601 47.4212 220.51 49.241 222.544 51.6402L221.813 52.3376C220.908 51.3454 219.915 50.4004 218.834 49.5027C217.753 48.6049 216.633 47.8348 215.473 47.1925C214.317 46.534 213.167 46.0655 212.022 45.7872C210.748 45.4774 209.658 45.4696 208.751 45.7638C207.86 46.062 207.299 46.6892 207.069 47.6457C207.015 47.8726 206.978 48.1297 206.96 48.4171C206.959 48.7084 207.003 49.0195 207.094 49.3505L209.658 49.9739L210.1 51.7544L210.042 51.9975L207.212 51.3094L203.984 64.9381Z" fill="#199ED7"/>
<path d="M212.287 67.4916L212.052 67.4092C211.408 66.1241 210.862 64.9615 210.415 63.9216C209.967 62.8818 209.671 61.9125 209.525 61.0138C209.396 60.1207 209.475 59.2568 209.765 58.422C209.994 57.7606 210.327 57.206 210.763 56.7583C211.215 56.3161 211.738 56.0225 212.333 55.8776C212.933 55.717 213.57 55.7547 214.244 55.9906C214.964 56.243 215.51 56.646 215.88 57.1996C216.266 57.7587 216.581 58.3458 216.824 58.9609C217.337 58.6462 217.873 58.4187 218.431 58.2786C218.994 58.1227 219.542 58.1381 220.075 58.3247C220.639 58.5222 221.142 58.9193 221.586 59.5161L222.682 56.4296L210.768 52.2565L210.501 50.4411L210.583 50.2049L227.22 56.0323L227.487 57.8477L227.405 58.084L224.655 57.121L220.159 70.2489L219.924 70.1666L218.47 68.2796L221.186 60.5946C221.087 60.5247 220.98 60.452 220.866 60.3766C220.767 60.3067 220.655 60.2498 220.53 60.2059C219.919 59.9919 219.259 60.07 218.551 60.4402C217.864 60.8 217.013 61.5085 215.997 62.5654L214.498 61.0339C214.706 60.7888 214.943 60.5362 215.209 60.2761C215.475 60.016 215.754 59.7692 216.045 59.5358C215.882 59.196 215.663 58.8898 215.389 58.6171C215.13 58.3498 214.82 58.1531 214.46 58.0269C213.834 57.8074 213.23 57.852 212.648 58.1605C212.083 58.4746 211.655 59.049 211.366 59.8837C211.17 60.4507 211.093 61.051 211.137 61.6845C211.202 62.3078 211.431 63.0414 211.824 63.8854C212.216 64.7294 212.803 65.7738 213.584 67.0186L212.287 67.4916Z" fill="#199ED7"/>
<path d="M230.882 79.6926L230.289 77.5981C230.794 77.518 231.121 77.3291 231.271 77.0314C231.368 76.8378 231.38 76.5917 231.307 76.2931C231.234 75.9945 231.031 75.5461 230.7 74.9482C230.376 74.3353 229.886 73.4607 229.23 72.3244C228.56 71.1433 228.033 70.194 227.65 69.4764C227.282 68.7664 227.035 68.1837 226.911 67.7282C226.801 67.2803 226.784 66.87 226.86 66.4973C226.951 66.1322 227.115 65.7114 227.355 65.235C227.743 64.4608 228.091 63.7685 228.398 63.1581C228.704 62.5477 229.003 61.9522 229.295 61.3716C229.601 60.7984 229.93 60.1806 230.281 59.5182L228.504 58.6162L228.478 56.7813L228.59 56.5579L241.518 63.12L241.544 64.9549L241.432 65.1782L238.811 63.8478C238.579 64.3466 238.321 64.8789 238.037 65.4446C237.768 66.0179 237.506 66.5576 237.252 67.0638C237.02 67.5627 236.825 67.9684 236.668 68.2811C236.227 69.1595 235.809 69.8067 235.414 70.2229C235.034 70.6465 234.618 70.9395 234.165 71.1018C233.711 71.2642 233.155 71.3925 232.494 71.4869L231.89 69.3588C232.35 69.2935 232.748 69.2055 233.082 69.0949C233.431 68.9919 233.758 68.7843 234.063 68.4722C234.376 68.1453 234.697 67.6543 235.026 66.9992C235.378 66.2994 235.695 65.6481 235.98 65.045C236.286 64.4346 236.63 63.7311 237.012 62.9345L232.147 60.4653C231.721 61.2766 231.355 61.9875 231.048 62.5979C230.749 63.1934 230.446 63.7964 230.14 64.4068C229.841 65.0023 229.493 65.6946 229.097 66.4837C228.91 66.8559 228.779 67.191 228.703 67.4891C228.636 67.7723 228.642 68.093 228.722 68.4513C228.825 68.8023 229.012 69.2617 229.284 69.8297C229.564 70.3827 229.962 71.1078 230.478 72.0048C231.134 73.1411 231.657 74.0792 232.047 74.8192C232.452 75.5666 232.735 76.1682 232.897 76.6238C233.073 77.0869 233.164 77.4602 233.171 77.7436C233.177 78.0271 233.117 78.2954 232.99 78.5485C232.661 79.2036 231.958 79.5849 230.882 79.6926Z" fill="#199ED7"/>
<path d="M249.673 87.8071L249.473 87.6582L248.644 85.4215L251.345 81.7981L243.023 81.577L242.742 79.5622L247.392 79.7249C247.056 79.1432 246.827 78.5157 246.704 77.8427C246.604 77.1661 246.587 76.5308 246.653 75.9366C246.729 75.3291 246.895 74.8511 247.152 74.5027C247.277 74.3052 247.399 74.126 247.517 73.9652C247.636 73.8044 247.749 73.6502 247.858 73.5028C248.164 73.0874 248.49 72.6452 248.836 72.1761C249.204 71.7036 249.572 71.2195 249.937 70.7236L248.377 69.562L248.66 67.7491L248.809 67.5481L260.625 76.3495L260.342 78.1625L260.194 78.3635L257.855 76.6211L249.673 87.8071ZM256.175 75.3701L251.636 71.9895L248.566 76.2406C248.115 76.8803 247.934 77.4618 248.023 77.985C248.113 78.5082 248.311 78.8839 248.617 79.1123C249.017 79.4101 249.564 79.6204 250.258 79.743C250.966 79.8756 251.794 79.9425 252.743 79.9435L256.175 75.3701Z" fill="#199ED7"/>
<path d="M254.658 92.1738L254.472 92.0075L253.845 89.7054L262.32 80.2761L260.684 78.8129L261.127 77.0326L261.292 76.8457L263.653 78.9572C263.739 78.4088 263.881 77.922 264.08 77.4969C264.289 77.0593 264.537 76.6784 264.824 76.3544C265.265 75.856 265.797 75.5057 266.419 75.3037C267.055 75.1128 267.754 75.1248 268.519 75.3397C269.295 75.5422 270.085 76.0036 270.891 76.7241C271.622 77.3781 272.25 78.174 272.775 79.1118C273.31 80.0372 273.752 81.1689 274.1 82.507C274.448 83.845 274.711 85.4303 274.888 87.2627L273.873 87.3933C273.713 86.245 273.484 85.1363 273.186 84.0669C272.9 82.9851 272.513 81.9801 272.024 81.052C271.548 80.135 270.937 79.3439 270.194 78.6789C269.537 78.0914 268.898 77.7214 268.279 77.5688C267.682 77.4149 267.142 77.423 266.658 77.5933C266.175 77.7635 265.762 78.0417 265.42 78.428C265.233 78.6399 265.081 78.8614 264.966 79.0927C264.862 79.335 264.772 79.6003 264.695 79.8883L266.665 81.6507L266.223 83.431L266.057 83.618L263.882 81.6727L254.658 92.1738Z" fill="#199ED7"/>
<path d="M260.154 97.5519L259.982 97.3704C260.279 95.4553 260.604 93.7887 260.958 92.3707C261.312 90.9526 261.875 89.8762 262.645 89.1416C263.535 88.2922 264.505 88.023 265.553 88.3339C266.624 88.6455 267.702 89.376 268.787 90.5255L271.201 93.0846L273.204 91.2088L266.457 84.0578L267.048 82.3216L267.228 82.1494L277.418 92.9486L276.827 94.6848L276.646 94.857L274.643 92.7334L264.658 102.325L264.486 102.144L264.055 99.7965L269.83 94.3577L267.621 92.0164C266.788 91.1331 265.967 90.6631 265.159 90.6062C264.374 90.55 263.699 90.7917 263.133 91.3312C262.868 91.5837 262.65 91.861 262.478 92.1632C262.317 92.4774 262.178 92.8631 262.06 93.32C261.954 93.7891 261.856 94.3764 261.767 95.0819C261.702 95.788 261.62 96.6706 261.522 97.7297L260.154 97.5519Z" fill="#199ED7"/>
<path d="M272.67 106.982C272.138 106.258 271.797 105.526 271.647 104.788C271.507 104.063 271.498 103.375 271.619 102.726C271.753 102.067 271.977 101.486 272.289 100.985C272.615 100.474 272.972 100.075 273.359 99.7878C273.946 99.3521 274.582 99.1504 275.265 99.1825C275.961 99.2047 276.647 99.422 277.32 99.8343C278.017 100.25 278.626 100.814 279.148 101.525C279.778 102.384 280.146 103.293 280.251 104.251C280.367 105.222 280.2 106.133 279.752 106.984L279.796 107.044L283.576 104.272L277.327 95.7565L278.127 94.1067L278.327 93.9582L287.544 106.521L286.745 108.17L286.545 108.319L284.817 105.963L273.733 114.246L273.585 114.045L273.444 111.662L276.663 109.306L276.634 109.266C275.88 109.306 275.147 109.094 274.434 108.628C273.721 108.162 273.133 107.613 272.67 106.982ZM273.509 105.428C273.863 105.911 274.278 106.308 274.753 106.619L276.097 101.581C275.67 101.421 275.243 101.344 274.815 101.35C274.397 101.37 274.001 101.519 273.627 101.796C273.093 102.192 272.821 102.736 272.813 103.426C272.804 104.116 273.036 104.784 273.509 105.428ZM277.063 102.139L275.73 107.107C276.183 107.247 276.633 107.297 277.077 107.258C277.522 107.218 277.932 107.059 278.305 106.782C278.893 106.346 279.128 105.81 279.01 105.172C278.906 104.524 278.627 103.891 278.174 103.274C277.849 102.831 277.479 102.452 277.063 102.139Z" fill="#199ED7"/>
<path d="M286.862 115.2C287.105 115.618 287.428 116.007 287.831 116.369C288.242 116.745 288.665 117.241 289.1 117.854L287.89 119.639C286.858 118.198 285.959 117.297 285.192 116.937C284.447 116.583 283.817 116.558 283.302 116.861C282.815 117.148 282.543 117.588 282.486 118.183C282.437 118.791 282.58 119.384 282.915 119.959C283.233 120.506 283.788 121.078 284.578 121.676C285.368 122.274 286.494 122.819 287.954 123.313L286.864 125.056C285.7 124.775 284.7 124.31 283.861 123.664C283.046 123.023 282.437 122.357 282.035 121.666C281.624 120.961 281.38 120.245 281.302 119.517C281.233 118.804 281.281 118.128 281.447 117.489C281.636 116.856 281.897 116.297 282.229 115.811C282.562 115.326 282.928 114.965 283.329 114.729C283.93 114.375 284.607 114.315 285.358 114.549C285.318 113.722 285.436 112.918 285.712 112.137C286.002 111.348 286.484 110.755 287.156 110.359C287.872 109.938 288.584 109.857 289.293 110.116C290.01 110.39 290.599 110.923 291.06 111.714C291.42 112.333 291.584 112.894 291.55 113.397C291.539 113.906 291.39 114.361 291.104 114.761C290.833 115.153 290.489 115.471 290.074 115.715C289.974 115.774 289.87 115.826 289.761 115.871C289.661 115.93 289.564 115.977 289.469 116.013L289.356 115.819C289.834 115.287 290.1 114.802 290.153 114.365C290.214 113.942 290.123 113.522 289.88 113.105C289.595 112.615 289.217 112.297 288.746 112.148C288.298 112.006 287.845 112.07 287.387 112.34C286.829 112.669 286.531 113.114 286.494 113.677C286.471 114.232 286.594 114.74 286.862 115.2ZM293.546 120.339L291.848 117.425L292.817 115.869L293.031 115.743L294.729 118.657L293.761 120.213L293.546 120.339Z" fill="#199ED7"/>
<path d="M283.398 137.16L283.305 136.955L285.998 133.188C285.684 132.818 285.406 132.368 285.165 131.837C284.807 131.049 284.62 130.217 284.606 129.344C284.607 128.463 284.756 127.606 285.052 126.773C285.348 125.941 285.768 125.198 286.31 124.545C286.868 123.886 287.531 123.379 288.301 123.026C289.085 122.665 289.786 122.582 290.403 122.775C291.026 122.984 291.583 123.406 292.073 124.043C292.578 124.673 293.048 125.466 293.482 126.421L294.258 128.128L296.431 127.13L292.977 119.53L294.096 118.08L294.323 117.976L300 130.468L298.881 131.918L298.654 132.022L297.279 128.996C296.645 129.287 295.989 129.588 295.31 129.9C294.653 130.22 294.083 130.491 293.6 130.713L293.295 130.523L291.837 127.315C291.395 126.344 290.855 125.657 290.216 125.254C289.577 124.851 288.873 124.826 288.103 125.179C287.394 125.505 286.852 125.938 286.477 126.477C286.124 127.024 285.921 127.603 285.87 128.213C285.835 128.816 285.937 129.383 286.179 129.914C286.303 130.187 286.456 130.465 286.639 130.748C286.845 131.038 287.067 131.266 287.306 131.432C287.585 131.083 287.848 130.779 288.095 130.519C288.349 130.274 288.581 130.103 288.792 130.006C289.049 129.888 289.261 129.873 289.428 129.961C289.618 130.058 289.768 130.227 289.878 130.47C290.037 130.819 290.115 131.251 290.111 131.766C290.115 132.296 290.031 132.793 289.859 133.257C289.709 133.729 289.453 134.048 289.091 134.215C288.925 134.291 288.645 134.337 288.251 134.353C287.857 134.369 287.427 134.246 286.961 133.983L284.683 138L283.398 137.16Z" fill="#199ED7"/>
<path d="M58.2572 200.933L43.249 202.863L43 200.93L58.0082 199L58.2572 200.933Z" fill="#199ED7"/>
<path d="M61.0535 214.679L46.2445 217.786L45.7966 215.655L56.1945 205.487L44.1888 208.005L43.8135 206.219L58.6226 203.113L59.0533 205.163L48.5709 215.433L60.6782 212.894L61.0535 214.679Z" fill="#199ED7"/>
<path d="M62.4626 232.446C61.2559 232.893 60.1457 232.884 59.1319 232.419C58.1358 231.963 57.4189 231.145 56.981 229.965L55.3281 225.514L49.3144 227.742L48.6432 225.934L62.8308 220.677L65.0034 226.529C65.5231 227.928 65.5592 229.139 65.1117 230.16C64.682 231.189 63.7989 231.951 62.4626 232.446ZM56.924 224.922L58.3242 228.694C58.6466 229.562 59.1174 230.154 59.7366 230.47C60.3606 230.799 61.0618 230.82 61.8403 230.531C62.6188 230.243 63.1371 229.771 63.3954 229.115C63.6585 228.472 63.6289 227.716 63.3065 226.848L61.9062 223.076L56.924 224.922Z" fill="#199ED7"/>
<path d="M71.4236 240.452L72.2926 242.174L62.8028 246.954C61.4436 247.638 60.1225 247.708 58.8397 247.162C57.563 246.628 56.526 245.572 55.7286 243.992C54.9188 242.387 54.6756 240.923 54.9992 239.599C55.3414 238.281 56.1983 237.277 57.5699 236.586L67.0597 231.806L67.9287 233.528L58.4389 238.308C57.4627 238.799 56.8833 239.478 56.7005 240.344C56.5363 241.216 56.719 242.177 57.2485 243.226C57.7967 244.312 58.486 245.033 59.3165 245.389C60.1469 245.745 61.0194 245.693 61.9337 245.232L71.4236 240.452Z" fill="#199ED7"/>
<path d="M71.7074 255.462C71.7867 255.938 71.7954 256.369 71.7337 256.756C71.6795 257.154 71.5472 257.496 71.3368 257.781C71.134 258.078 70.9222 258.323 70.7013 258.516C70.4804 258.709 70.2018 258.915 69.8655 259.134C69.7612 259.202 69.6067 259.294 69.402 259.411C69.2048 259.539 69.0599 259.633 68.9671 259.694C68.4916 260.003 68.1255 260.315 67.8688 260.631C67.6121 260.946 67.4775 261.322 67.4651 261.759L67.065 262.02L65.7851 260.056C66.1675 259.477 66.782 258.913 67.6286 258.362L68.7592 257.627C69.5362 257.121 69.9949 256.584 70.1354 256.014C70.2875 255.437 70.1295 254.789 69.6614 254.071L66.9431 249.901L61.4811 253.454L60.4278 251.838L73.1085 243.589L76.9141 249.427C77.7221 250.667 78.0455 251.809 77.8845 252.854C77.7426 253.903 77.1267 254.782 76.0366 255.491C75.3176 255.959 74.6185 256.191 73.9391 256.187C73.2598 256.184 72.5159 255.942 71.7074 255.462ZM74.7118 253.953C75.5468 253.41 75.9773 252.816 76.0035 252.172C76.0297 251.528 75.7898 250.818 75.2839 250.042L72.7355 246.133L68.3694 248.973L70.9178 252.882C71.4766 253.74 72.0583 254.252 72.6629 254.419C73.2751 254.599 73.9581 254.443 74.7118 253.953Z" fill="#199ED7"/>
<path d="M72.9793 267.484C73.4687 268.084 73.9536 268.536 74.4339 268.841C74.9142 269.145 75.3456 269.303 75.7283 269.312C76.1196 269.332 76.4532 269.293 76.7289 269.193C77.0242 269.096 77.2952 268.946 77.542 268.746C78.4325 268.021 78.48 266.788 77.6846 265.046L76.0845 261.508C75.2318 259.652 75.519 258.144 76.946 256.983C78.0082 256.119 79.1466 255.807 80.3612 256.049C81.5952 256.293 82.7366 257.058 83.7853 258.344C84.8864 259.695 85.4209 261.007 85.3889 262.281C85.3675 263.546 84.7872 264.651 83.6479 265.596L82.4944 264.181C83.2474 263.551 83.6224 262.818 83.6194 261.982C83.6271 261.138 83.2509 260.25 82.4906 259.317C81.8439 258.524 81.1415 258.035 80.3835 257.85C79.6341 257.675 78.9644 257.828 78.3743 258.308C77.9237 258.674 77.6876 259.107 77.666 259.606C77.6444 260.105 77.8255 260.787 78.2091 261.651L79.8193 265.235C80.2514 266.202 80.3848 267.11 80.2193 267.958C80.0626 268.816 79.6248 269.538 78.9059 270.123C78.5947 270.376 78.2486 270.586 77.8676 270.754C77.506 270.923 77.0715 271.036 76.5641 271.092C76.0674 271.14 75.5602 271.098 75.0425 270.966C74.5248 270.835 73.9583 270.556 73.3429 270.13C72.7363 269.714 72.149 269.158 71.581 268.461C71.2227 268.022 70.915 267.568 70.658 267.1C70.3991 266.651 70.1904 266.143 70.032 265.577C69.8843 265.002 69.8329 264.446 69.878 263.91C69.9337 263.366 70.1253 262.791 70.4528 262.186C70.7891 261.591 71.2747 261.027 71.9098 260.492L73.0633 261.907L72.9828 261.972C72.6502 262.243 72.3784 262.544 72.1674 262.877C71.965 263.219 71.8162 263.617 71.7207 264.069C71.634 264.532 71.6883 265.058 71.8837 265.648C72.0985 266.24 72.4637 266.852 72.9793 267.484Z" fill="#199ED7"/>
<path d="M94.9882 270.632L96.3659 271.983L88.9214 279.56C87.8552 280.645 86.6268 281.135 85.2363 281.031C83.8556 280.936 82.5333 280.269 81.2692 279.03C79.9853 277.771 79.2832 276.463 79.1629 275.106C79.0621 273.748 79.5497 272.521 80.6257 271.426L88.0701 263.85L89.4478 265.2L82.0034 272.777C81.2376 273.556 80.9078 274.385 81.0138 275.264C81.1394 276.143 81.622 276.994 82.4614 277.817C83.3305 278.669 84.2155 279.13 85.1164 279.199C86.0173 279.269 86.8264 278.939 87.5437 278.209L94.9882 270.632Z" fill="#199ED7"/>
<path d="M99.7732 274.958L90.0195 286.515L88.5278 285.259L98.2815 273.702L99.7732 274.958Z" fill="#199ED7"/>
<path d="M105.346 281.211L97.4526 292.065L95.8909 290.931L103.784 280.078L99.7539 277.153L100.754 275.777L110.36 282.748L109.36 284.123L105.346 281.211Z" fill="#199ED7"/>
<path d="M123.435 298.704C122.403 300.692 120.956 302.037 119.095 302.738C117.233 303.44 115.32 303.282 113.355 302.263C111.414 301.257 110.183 299.801 109.661 297.896C109.145 295.978 109.432 293.969 110.521 291.871C111.611 289.773 113.087 288.389 114.947 287.718C116.814 287.035 118.712 287.193 120.64 288.192C122.606 289.211 123.84 290.676 124.344 292.588C124.86 294.506 124.557 296.545 123.435 298.704ZM119.857 289.701C118.432 288.963 117.019 288.877 115.618 289.443C114.223 289.998 113.095 291.103 112.235 292.759C111.375 294.416 111.116 295.979 111.459 297.45C111.821 298.914 112.714 300.015 114.139 300.754C115.564 301.492 116.974 301.585 118.368 301.03C119.775 300.483 120.899 299.399 121.741 297.779C122.62 296.086 122.888 294.504 122.545 293.034C122.202 291.563 121.306 290.453 119.857 289.701Z" fill="#199ED7"/>
<path d="M126.627 300.455L124.139 306.874L122.339 306.178L127.802 292.082L137.268 295.742L136.654 297.328L128.988 294.364L127.242 298.869L133.978 301.474L133.364 303.06L126.627 300.455Z" fill="#199ED7"/>
<path d="M139.814 304.591C139.971 303.918 140.18 303.264 140.442 302.63C140.717 301.998 141.099 301.363 141.589 300.725C142.079 300.087 142.621 299.56 143.215 299.145C143.826 298.719 144.576 298.425 145.467 298.263C146.37 298.104 147.334 298.144 148.359 298.383C151.566 299.129 153.086 301.171 152.919 304.51L150.998 304.064C151.027 302.963 150.786 302.077 150.275 301.404C149.764 300.732 148.923 300.259 147.75 299.987C146.322 299.654 145.062 299.936 143.972 300.832C142.896 301.732 142.138 303.124 141.699 305.008C141.268 306.853 141.358 308.42 141.966 309.712C142.577 310.989 143.617 311.799 145.086 312.141C146.299 312.423 147.308 312.303 148.112 311.78C148.919 311.244 149.603 310.289 150.165 308.915L152.106 309.367C150.754 313.154 148.278 314.629 144.68 313.792C143.669 313.557 142.799 313.177 142.069 312.652C141.355 312.117 140.817 311.531 140.454 310.893C140.105 310.258 139.85 309.553 139.69 308.778C139.546 307.992 139.489 307.262 139.519 306.588C139.562 305.916 139.66 305.251 139.814 304.591Z" fill="#199ED7"/>
<path d="M157.12 300.381L155.429 313.689L162.842 314.629L162.627 316.316L153.299 315.133L155.205 300.138L157.12 300.381Z" fill="#199ED7"/>
<path d="M167.07 309.634L166.897 314.815L175.817 315.112L175.76 316.812L164.91 316.45L165.416 301.343L175.892 301.692L175.835 303.392L167.288 303.107L167.127 307.935L175.363 308.21L175.306 309.909L167.07 309.634Z" fill="#199ED7"/>
<path d="M185.845 311.647L180.025 312.037L178.734 316.674L176.684 316.811L181.058 301.369L183.543 301.203L189.856 315.93L187.702 316.074L185.845 311.647ZM185.199 310.07L182.419 303.356L180.394 310.391L185.199 310.07Z" fill="#199ED7"/>
<path d="M200.78 298.658L203.443 313.537L201.297 313.921L191.435 303.234L193.594 315.296L191.796 315.618L189.133 300.738L191.197 300.369L201.159 311.144L198.982 298.979L200.78 298.658Z" fill="#199ED7"/>
<path d="M211.318 304.284L212.967 309.199L221.43 306.365L221.97 307.977L211.677 311.424L206.869 297.092L216.808 293.764L217.349 295.376L209.24 298.091L210.777 302.672L218.59 300.056L219.131 301.668L211.318 304.284Z" fill="#199ED7"/>
<path d="M228.489 288.419L234.81 302.152L232.83 303.062L220.596 295.194L225.72 306.328L224.061 307.09L217.739 293.357L219.644 292.482L231.998 300.409L226.83 289.181L228.489 288.419Z" fill="#199ED7"/>
<path d="M243.025 297.428L241.247 298.497L228.785 288.348L230.563 287.278L240.973 295.952L237.962 282.831L239.723 281.772L243.025 297.428Z" fill="#199ED7"/>
<path d="M242.388 279.885L251.075 292.262L249.477 293.381L240.791 281.004L242.388 279.885Z" fill="#199ED7"/>
<path d="M256.146 278.606C256.611 278.475 257.039 278.418 257.43 278.437C257.833 278.446 258.187 278.54 258.494 278.717C258.812 278.885 259.079 279.068 259.296 279.266C259.513 279.464 259.748 279.718 260.003 280.028C260.082 280.124 260.191 280.267 260.33 280.457C260.479 280.639 260.589 280.772 260.66 280.858C261.02 281.295 261.371 281.624 261.714 281.844C262.056 282.064 262.445 282.156 262.881 282.12L263.184 282.488L261.373 283.976C260.755 283.661 260.125 283.113 259.483 282.334L258.626 281.293C258.037 280.578 257.452 280.182 256.869 280.105C256.278 280.018 255.651 280.247 254.988 280.791L251.141 283.952L255.28 288.981L253.789 290.206L244.178 278.531L249.565 274.106C250.709 273.166 251.81 272.719 252.867 272.763C253.927 272.787 254.869 273.301 255.696 274.305C256.24 274.967 256.549 275.635 256.621 276.31C256.692 276.985 256.534 277.75 256.146 278.606ZM254.312 275.791C253.679 275.022 253.041 274.66 252.397 274.706C251.754 274.751 251.074 275.068 250.358 275.656L246.751 278.619L250.06 282.639L253.667 279.676C254.458 279.026 254.903 278.392 255.003 277.773C255.113 277.145 254.883 276.485 254.312 275.791Z" fill="#199ED7"/>
<path d="M269.281 265.732C270.898 267.284 271.78 269.05 271.927 271.032C272.075 273.014 271.382 274.802 269.848 276.397C268.333 277.972 266.587 278.74 264.609 278.702C262.621 278.653 260.774 277.811 259.068 276.173C257.361 274.536 256.449 272.731 256.331 270.758C256.203 268.776 256.892 267.003 258.397 265.438C259.931 263.843 261.687 263.074 263.665 263.132C265.653 263.18 267.525 264.047 269.281 265.732ZM259.625 266.615C258.513 267.772 258.03 269.101 258.178 270.604C258.316 272.097 259.058 273.49 260.405 274.783C261.752 276.075 263.18 276.765 264.689 276.852C266.198 276.92 267.508 276.375 268.62 275.219C269.732 274.063 270.22 272.738 270.082 271.245C269.954 269.742 269.231 268.358 267.914 267.094C266.537 265.773 265.094 265.069 263.585 264.982C262.076 264.894 260.756 265.439 259.625 266.615Z" fill="#199ED7"/>
<path d="M271.201 250.345L283.272 259.461L281.957 261.197L267.452 260.043L277.237 267.433L276.136 268.888L264.066 259.772L265.33 258.102L279.968 259.253L270.1 251.8L271.201 250.345Z" fill="#199ED7"/>
<path d="M289.199 249.654L288.179 251.412L275.052 248.768L286.023 255.125L285.106 256.703L272.017 249.119L273.361 246.805L287.012 249.537L277.819 239.129L279.162 236.815L292.251 244.399L291.335 245.977L280.364 239.621L289.199 249.654Z" fill="#199ED7"/>
<path d="M288.173 236.958L292.937 239.014L296.478 230.83L298.04 231.505L293.733 241.459L279.843 235.462L284.002 225.851L285.565 226.525L282.172 234.367L286.611 236.283L289.881 228.727L291.443 229.402L288.173 236.958Z" fill="#199ED7"/>
<path d="M287.808 213.605L302.266 218.065L301.622 220.145L287.592 223.998L299.313 227.614L298.774 229.357L284.316 224.897L284.935 222.896L299.089 218.995L287.268 215.348L287.808 213.605Z" fill="#199ED7"/>
<path d="M291.015 206.526L304.197 209.091L303.828 210.984L290.646 208.419L289.693 213.303L288.022 212.978L290.294 201.337L291.964 201.662L291.015 206.526Z" fill="#199ED7"/>
<path d="M123.763 215.279C107.523 223.082 98.0291 225.995 78.6436 221.961C82.3278 230.584 84.6216 235.432 91.4553 244.235H126.548C124.068 232.966 123.682 226.62 123.763 215.279Z" fill="#199ED7"/>
<path d="M172.225 224.745C157.185 221.404 147.158 211.381 127.662 215.279C126.823 227.239 127.689 233.538 131.004 244.235H172.225V224.745Z" fill="#199ED7"/>
<path d="M226.256 215.606C242.496 223.409 251.99 226.322 271.376 222.288C267.692 230.911 265.398 235.759 258.564 244.562H223.471C225.952 233.293 226.337 226.946 226.256 215.606Z" fill="#199ED7"/>
<path d="M177.795 224.745C192.835 221.404 202.861 211.708 222.357 215.606C223.196 227.566 222.33 233.865 219.015 244.562L177.795 244.235V224.745Z" fill="#199ED7"/>
<path d="M128.13 247.878H95.3545C116.775 270.534 129.767 283.667 161.471 287.667C142.258 276.849 133.781 266.667 128.13 247.878Z" fill="#199ED7"/>
<path d="M172.225 247.878H133.216C141.693 271.222 156.967 286.562 172.225 286.562V247.878Z" fill="#199ED7"/>
<path d="M221.332 247.878H254.108C232.687 270.534 219.695 283.667 187.991 287.667C207.204 276.849 215.681 266.667 221.332 247.878Z" fill="#199ED7"/>
<path d="M177.795 247.878H217.917C209.441 271.222 193.053 286.562 177.795 286.562V247.878Z" fill="#199ED7"/>
<path d="M132.675 199.242C113.179 199.242 100.368 217.483 73.0734 206.983L74.7444 213.058C102.039 223.558 113.179 205.874 132.675 205.874C147.756 205.874 157.471 216.444 173.896 216.378C190.547 216.612 201.033 205.874 216.23 205.874C235.726 205.874 247.981 223.558 275.275 213.062L276.946 206.43C249.652 216.927 235.726 199.242 216.23 199.242C201.033 199.242 191.104 209.984 174.453 209.75C158.028 209.816 147.756 199.242 132.675 199.242Z" fill="#199ED7"/>
<path d="M132.924 184.878C113.532 184.878 97.4375 200.904 70.2882 190.404L70.8452 197.036C97.9945 207.536 113.532 191.509 132.924 191.509C147.924 191.509 157.952 201.971 174.289 201.905C190.852 202.139 200.918 191.509 216.034 191.509C235.427 191.509 252.025 207.532 279.174 197.036L280.288 189.299C253.139 199.795 235.427 184.878 216.034 184.878C200.918 184.878 190.852 195.623 174.289 195.388C157.952 195.454 147.924 184.878 132.924 184.878Z" fill="#199ED7"/>
<path d="M70.2882 174.93V169.799L279.731 169.404V174.93H70.2882Z" fill="#199ED7"/>
<path d="M72.5163 162.772C72.5163 162.772 72.5163 158.825 73.6274 157.246H278.227C278.227 157.246 279.731 159.614 279.731 162.772H72.5163Z" fill="#199ED7"/>
<path d="M86.9991 124.641L83.0999 131.272H266.92L263.02 124.641H86.9991Z" fill="#199ED7"/>
<path d="M138.803 83.7461V77.6671H211.217V83.7461H138.803Z" fill="#199ED7"/>
</svg>
